#!OML:ASF H:\Dans Jumps\Project 1\Capture day 1\Session 1\subject.ASF
:FULLY-SPECIFIED
:DEGREES
481
root 0.747397 17.577 2.50778 7.87924 -1.63761 -2.22357
lowerback 1.74121 0.225451 -0.294124
upperback 3.90161 0.257063 1.78883
thorax 3.0223 0.0892655 2.00674
lowerneck -12.4366 -0.0759289 -1.61844
upperneck 30.2966 0.209907 0.278421
head 11.992 -0.0576568 0.41398
rclavicle -1.44119e-015 8.34896e-015
rhumerus -27.1758 -21.822 -76.8914
rradius 20.5996
rwrist 39.3697
rhand -20.9912 -26.0635
rfingers 7.12502
rthumb 5.38287 -55.9752
lclavicle -1.44119e-015 8.34896e-015
lhumerus -22.1486 1.87287 85.6998
lradius 18.4488
lwrist 6.25949
lhand -27.4204 -5.94771
lfingers 7.12502
lthumb -0.826082 24.0304
rfemur -19.832 -1.61976 21.2759
rtibia 27.6296
rfoot -14.1713 -0.649216
rtoes 13.6231
lfemur -19.897 6.15073 -17.7316
ltibia 26.5724
lfoot -11.1093 5.43613
ltoes -4.46747
482
root 0.745937 17.5813 2.51929 7.89197 -1.621 -2.19954
lowerback 1.68742 0.222016 -0.292575
upperback 3.87166 0.25255 1.78952
thorax 3.02174 0.0872302 2.00664
lowerneck -12.4524 -0.0617645 -1.62316
upperneck 30.2385 0.23968 0.253438
head 11.9718 -0.0475824 0.409383
rclavicle 1.98785e-015 5.96354e-016
rhumerus -26.7279 -21.2858 -77.3841
rradius 20.8019
rwrist 38.9275
rhand -21.1178 -26.1191
rfingers 7.12502
rthumb 5.26063 -56.0338
lclavicle 1.98785e-015 5.96354e-016
lhumerus -22.1011 1.72581 85.7205
lradius 18.4763
lwrist 6.29636
lhand -27.398 -5.94226
lfingers 7.12502
lthumb -0.804461 24.036
rfemur -19.7398 -1.6177 21.252
rtibia 27.5159
rfoot -14.1612 -0.669567
rtoes 13.6352
lfemur -19.78 6.13071 -17.7479
ltibia 26.4049
lfoot -11.0867 5.41396
ltoes -4.41998
483
root 0.744832 17.5856 2.53094 7.90645 -1.60677 -2.16143
lowerback 1.6287 0.219574 -0.300397
upperback 3.83787 0.249532 1.78519
thorax 3.01992 0.0857834 2.00663
lowerneck -12.4597 -0.0496411 -1.62971
upperneck 30.1769 0.266483 0.229384
head 11.9486 -0.0388748 0.405029
rclavicle 4.27387e-015 -9.14409e-015
rhumerus -26.2954 -20.7445 -77.8594
rradius 21.0048
rwrist 38.5032
rhand -21.2363 -26.156
rfingers 7.12502
rthumb 5.14621 -56.0735
lclavicle 4.27387e-015 -9.14409e-015
lhumerus -22.0503 1.59199 85.7398
lradius 18.4838
lwrist 6.29546
lhand -27.3659 -5.9477
lfingers 7.12502
lthumb -0.773467 24.0306
rfemur -19.6556 -1.62348 21.2114
rtibia 27.4136
rfoot -14.1556 -0.682871
rtoes 13.637
lfemur -19.6633 6.11075 -17.7821
ltibia 26.2358
lfoot -11.0635 5.39296
ltoes -4.37967
484
root 0.743886 17.5896 2.5425 7.92258 -1.59684 -2.11928
lowerback 1.56827 0.219375 -0.311239
upperback 3.80073 0.249595 1.77931
thorax 3.01547 0.0858484 2.00675
lowerneck -12.4658 -0.0411273 -1.63797
upperneck 30.1153 0.287848 0.207341
head 11.9252 -0.032514 0.400985
rclavicle -6.65929e-015 -8.54774e-015
rhumerus -25.8786 -20.1916 -78.3196
rradius 21.215
rwrist 38.0774
rhand -21.325 -26.1769
rfingers 7.12502
rthumb 5.06053 -56.0965
lclavicle -6.65929e-015 -8.54774e-015
lhumerus -21.9962 1.47237 85.7577
lradius 18.4775
lwrist 6.25744
lhand -27.3036 -5.91217
lfingers 7.12502
lthumb -0.713297 24.0664
rfemur -19.5802 -1.62695 21.1657
rtibia 27.3227
rfoot -14.1526 -0.695742
rtoes 13.629
lfemur -19.5488 6.09571 -17.8225
ltibia 26.067
lfoot -11.0399 5.37382
ltoes -4.36103
485
root 0.742927 17.5933 2.55371 7.94114 -1.59132 -2.07847
lowerback 1.50867 0.220891 -0.321484
upperback 3.75996 0.25201 1.77331
thorax 3.00672 0.0871548 2.0064
lowerneck -12.4685 -0.0359361 -1.65061
upperneck 30.0515 0.303907 0.190214
head 11.9003 -0.0283706 0.398804
rclavicle -2.03754e-015 -4.37326e-015
rhumerus -25.4783 -19.6281 -78.7653
rradius 21.4346
rwrist 37.6524
rhand -21.3832 -26.1814
rfingers 7.12502
rthumb 5.00432 -56.1023
lclavicle -2.03754e-015 -4.37326e-015
lhumerus -21.9411 1.37058 85.7726
lradius 18.46
lwrist 6.17126
lhand -27.2193 -5.8431
lfingers 7.12502
lthumb -0.631911 24.1357
rfemur -19.5135 -1.6189 21.1211
rtibia 27.2382
rfoot -14.1471 -0.716604
rtoes 13.6158
lfemur -19.4432 6.08558 -17.862
ltibia 25.9071
lfoot -11.018 5.35581
ltoes -4.34167
486
root 0.741878 17.5968 2.56452 7.95773 -1.58735 -2.04022
lowerback 1.45595 0.224296 -0.328824
upperback 3.71841 0.257014 1.7663
thorax 2.9932 0.0898887 2.00337
lowerneck -12.4777 -0.0331088 -1.66709
upperneck 29.9914 0.315027 0.181749
head 11.8783 -0.0257967 0.399879
rclavicle 2.88238e-015 -9.93923e-016
rhumerus -25.0901 -19.0765 -79.1936
rradius 21.658
rwrist 37.2352
rhand -21.4114 -26.1633
rfingers 7.12502
rthumb 4.97708 -56.0849
lclavicle 2.88238e-015 -9.93923e-016
lhumerus -21.8814 1.27936 85.783
lradius 18.4375
lwrist 6.05121
lhand -27.1392 -5.78913
lfingers 7.12502
lthumb -0.554498 24.1899
rfemur -19.4495 -1.59975 21.0797
rtibia 27.1593
rfoot -14.1403 -0.750103
rtoes 13.5865
lfemur -19.3426 6.08127 -17.8982
ltibia 25.7574
lfoot -11.0003 5.33529
ltoes -4.3215
